<?xml version="1.0" encoding="utf-8"?>
<!-- Generator: Adobe Illustrator 20.0.0, SVG Export Plug-In . SVG Version: 6.00 Build 0)  -->
<svg version="1.1" id="Layer_1" xmlns="http://www.w3.org/2000/svg" xmlns:xlink="http://www.w3.org/1999/xlink" x="0px" y="0px"
	 viewBox="0 0 214.2 224.2" style="enable-background:new 0 0 214.2 224.2;" xml:space="preserve">
<style type="text/css">
	.st0{fill:#28AE4A;}
</style>
<g>
	<path class="st0" d="M2.2,142c-1.3-2.6-1.7-6.6-1.3-8.3c0.4-2.6,2.2-8.7,8.7-13.5c10.9-7.4,22.3-14.4,35.4-21.4
		c6.6-27.1,15.7-54.6,23.2-70.8C73,17.5,79.1,13.5,90,13.5c2.6,0,6.6,0.4,8.7,1.3C89.1,35.8,80,60.7,73,85.2
		c13.1-5.7,27.5-11.4,43.3-16.2c7.4-26.2,14.4-45.4,20.5-57.2c3.9-7.4,10.5-10.5,16.6-11.4c5.2-0.4,10,0,14,1.3
		c-10,23.6-16.2,41.1-21.8,59c10.5-3.1,21.8-5.7,33.6-7.9c6.6-1.3,29.7-5.7,34.1,17c-26.2,3.1-51.1,8.3-74.7,14.9
		c-2.6,9.6-5.2,19.7-8.3,31.9c-5.2,20.1-14.4,71.7-17.5,105.3c-1.3,0.9-6.1,1.3-7.9,1.3c-7,0-14.9-4.4-15.3-15.3
		c-0.4-13.5,7.4-63.8,19.2-110.1c0.4-1.3,0.9-3.1,1.3-4.4c-15.3,5.2-29.7,10.9-42.4,16.2c-4.8,21-11.4,53.3-13.5,85.2
		c-0.4,0.4-4.8,1.3-7.4,1.3c-8.3,0-14-5.2-14-14.9c0-18.4,3.9-41.9,7.4-59.4C22.3,130.2,9.6,137.6,2.2,142z"/>
</g>
</svg>
