<?xml version="1.0" standalone="no"?>
<!DOCTYPE svg PUBLIC "-//W3C//DTD SVG 1.1//EN" "http://www.w3.org/Graphics/SVG/1.1/DTD/svg11.dtd">
<svg xmlns="http://www.w3.org/2000/svg">
<metadata>Copyright (C) 2017 by original authors @ fontello.com</metadata>
<defs>
<font id="fontello" horiz-adv-x="1000" >
<font-face font-family="fontello" font-weight="400" font-stretch="normal" units-per-em="1000" ascent="850" descent="-150" />
<missing-glyph horiz-adv-x="1000" />
<glyph glyph-name="calendar" unicode="&#xe800;" d="M0-66l0 738q0 35 24 60t60 24l135 0 0 63q0 13 9 22t22 9 22-9 9-22l0-63 188 0 0 63q0 13 9 22t22 9 22-9 9-22l0-63 188 0 0 63q0 13 9 22t22 9 22-9 9-22l0-63 135 0q35 0 60-24t24-60l0-738q0-35-24-60t-60-24l-832 0q-35 0-60 24t-24 60z m63 0q0-10 5-16t16-6l832 0q10 0 16 6t5 16l0 738q0 10-5 16t-16 6l-135 0 0-63q0-13-9-22t-22-9-22 9-9 22l0 63-188 0 0-63q0-13-9-22t-22-9-22 9-9 22l0 63-188 0 0-63q0-13-9-22t-22-9-22 9-9 22l0 63-135 0q-10 0-16-6t-5-16l0-738z m156 135l0 94 125 0 0-94-125 0z m0 156l0 94 125 0 0-94-125 0z m0 156l0 94 125 0 0-94-125 0z m219-312l0 94 125 0 0-94-125 0z m0 156l0 94 125 0 0-94-125 0z m0 156l0 94 125 0 0-94-125 0z m218-312l0 94 125 0 0-94-125 0z m0 156l0 94 125 0 0-94-125 0z m0 156l0 94 125 0 0-94-125 0z" horiz-adv-x="1000" />

<glyph glyph-name="adult" unicode="&#xe801;" d="M0-132l0 289q0 103 60 177t157 75l330 0q101-2 158-76t57-176l0-289q0-18-18-18l-105 0q-16 0-16 18l0 252q-6 27-27 24t-22-24l0-252q-2-18-19-18l-352 0q-17 0-17 18l0 252q-4 27-26 24t-23-24l0-252q0-18-18-18l-101 0q-18 0-18 18z m186 783q0 82 59 140t140 59q86-4 142-60t59-139q-2-84-61-143t-140-58q-84 2-142 60t-57 141z" horiz-adv-x="762" />

<glyph glyph-name="wifi" unicode="&#xe802;" d="M621-36q-30-32-73-31t-74 31-31 73 31 74q30 31 73 31t74-31q32-30 32-74t-32-73z m368 411q-41 0-73 31-152 151-368 151t-369-151q-31-31-74-30t-74 30q-31 31-31 73t31 73q140 140 328 190t375 0 329-190q31-31 31-73t-31-73-74-31z m-663-221q-42 0-73 31t-32 74 32 73q80 80 187 109t215 0 188-109q31-31 31-73t-31-74-74-31-74 31q-61 61-147 61t-148-61q-31-31-74-31z" horiz-adv-x="1094" />

<glyph glyph-name="book-open" unicode="&#xe803;" d="M340 238l0-68-200 80 0 68z m0 208l0-68-200 80 0 68z m538 346q22-12 22-42l0-640q0-34-32-46l-398-160q-8-2-10-2t-5-1-5-1-5 1-5 1l-10 2-398 160q-32 12-32 46l0 640q0 30 22 42 22 16 46 6l382-154 382 154q24 10 46-6z m-478-788l0 560-320 128 0-560z m420 128l0 560-320-128 0-560z m-60 186l0-68-200-80 0 68z m0 208l0-68-200-80 0 68z" horiz-adv-x="900" />

<glyph glyph-name="clock" unicode="&#xe804;" d="M460 810q190 0 325-135t135-325-135-325-325-135-325 135-135 325 135 325 325 135z m0-820q150 0 255 106t105 254q0 150-105 255t-255 105q-148 0-254-105t-106-255q0-148 106-254t254-106z m36 620l0-244 150-150-50-50-170 170 0 274 70 0z" horiz-adv-x="920" />

<glyph glyph-name="location" unicode="&#xe805;" d="M0 473q0 156 110 267t267 110 267-110 110-267q0-123-53-193l-324-430-324 430q-53 70-53 193z m219 0q0-66 46-112t112-46 112 46 46 112-46 112-112 46-112-46-46-112z" horiz-adv-x="754" />

<glyph glyph-name="people" unicode="&#xe806;" d="M492 419c86 0 155 70 155 153s-69 153-155 153-156-69-156-153 72-153 156-153z m0 245c50 0 91-42 91-89s-41-89-91-89c-50 0-92 42-92 89s42 89 92 89z m164-328c-42 45-98 70-162 70s-122-23-161-70c-102-114-83-325-83-333 3-17 17-28 31-28h425c16 0 30 11 30 28 3 8 22 222-80 333z m19-297h-364c0 58 3 186 67 255 28 34 66 48 114 48 47 0 86-17 114-48 66-69 72-200 69-255z" horiz-adv-x="986" />

<glyph glyph-name="child" unicode="&#xe807;" d="M542 194c-6-27-20-38-42-38-22 0-36 11-44 38-12 0-23 0-34 0-3-38 36-80 84-77 41 2 75 39 69 77-11 0-22 0-33 0z m-103 62c0 22-17 38-39 38-22 0-39-19-39-38 0-20 17-39 39-39 19 0 39 16 39 39z m161 38c-22 0-39-16-39-38 0-23 17-39 39-39 22 0 39 16 39 39-3 19-20 38-39 38z m253 39c-9 3-20 6-31 6-5 0-11 0-14 3l-5 0 0 5c-36 142-128 225-272 247l-6 0 0 6c0 6 0 14 0 19 0 14 0 28-3 39-3 23-16 45-36 59-19 14-44 19-67 14-25-6-47-20-61-42-11-20-16-42-11-64 20 0 39 0 59 0 0 0 0 0 0 3 0 5 0 11 0 16 0 17 13 28 30 28 17 0 31-11 31-28 0-11 0-22 0-33 0-5 0-11 0-14v-5l-6 0c-67-9-125-36-172-81-47-44-78-100-92-167l0-5-5 0c-6 0-9 0-14 0-9 0-17 0-22-3-50-11-81-61-70-111 6-25 22-47 42-61 22-14 47-17 72-11 3 0 6 0 8 0 9 0 14-3 20-14 58-103 141-158 253-164 127-8 227 47 294 164 6 11 11 17 28 11 50-11 100 14 114 64 11 53-17 105-64 119z m-684-130c-22 0-41 19-41 41 0 23 19 42 41 42 23 0 42-19 42-42 0-22-19-41-42-41z m581 58c-8-128-117-228-250-228-64 0-128 25-172 67-47 42-75 100-78 161-6 78 17 145 64 195 47 50 117 80 186 80 0 0 0 0 3 0 69 0 139-28 186-78 42-47 67-116 61-197z m78-58c-22 0-42 19-42 41 0 23 20 42 42 42 22 0 41-19 41-42 0-22-16-41-41-41z" horiz-adv-x="986" />

<glyph glyph-name="bed-1" unicode="&#xe808;" d="M236 439c31 0 58 0 89 0 31 0 33 0 64 0 25 0 44 14 50 39 3 14 3 33 0 47-6 22-22 39-47 39-64 0-98 0-159 0-22 0-39-14-44-36-3-11-3-22-3-36-3-31 17-53 50-53z m678-70c0 34-25 42-58 42-292 0-392 0-684 0h-25v22c0 95 0 53 0 148 0 8 0 13-3 22-2 16-19 25-33 25-17 0-36-11-36-28 0-6 0-8 0-14 0-200 0-261 0-461 0-3 0-8 0-11 3-17 19-28 36-28 17 0 33 8 36 25 0 8 0 17 0 25 0 31 0 61 0 92h689v-20c0-27 0-55 0-83 0-11 3-25 11-31 6-5 28-8 39-5 14 3 25 17 25 30 0 84 3 167 3 250z" horiz-adv-x="986" />

<glyph glyph-name="reservation" unicode="&#xe809;" d="M92 211c0-19 16-36 39-36h725c19 0 36 17 38 36l0 3c0 3 0 5 0 8 0 209-158 381-363 400v45c0 22-17 39-39 39s-39-17-39-39v-48c-200-16-361-188-361-397 0-3 0-5 0-11l0 0z m397 336c3 0 3 0 5 0s3 0 6 0c167-3 303-133 319-297h-650c14 164 150 294 320 297z m419-441h-830c-22 0-39-17-39-39 0-23 17-39 39-39h828c22 0 38 16 38 39 0 22-16 39-36 39z" horiz-adv-x="986" />

<glyph glyph-name="calendar-1" unicode="&#xe80a;" d="M328 286h-67v-64h67v64z m133 0h-67v-64h67v64z m131 0h-67v-64h67v64z m133-130h-67v-64h67v64z m-397 0h-67v-64h67v64z m133 0h-67v-64h67v64z m131 0h-67v-64h67v64z m133 130h-67v-64h67v64z m0 450v67h-67v-64h-333v64h-64v-64h-200v-839h864v836h-200z m133-772h-730v450h733v-450z m0 514h-730v194h133v-64h67v64h333v-64h67v64h133v-194z" horiz-adv-x="986" />

<glyph glyph-name="arrowleft" unicode="&#xe80b;" d="M225 353l472 486 61-64-408-422 411-422-61-64-475 486z" horiz-adv-x="986" />

<glyph glyph-name="arrowright" unicode="&#xe80c;" d="M286-133l-61 64 411 422-411 422 61 64 472-486-472-486z" horiz-adv-x="986" />

<glyph glyph-name="metinglayout1" unicode="&#xe80d;" d="M8 843v-978h1766v978h-1766z m1748-959h-1730v940h1730v-940z m-1256 319h801c83 0 154 68 154 155 0 82-68 154-154 154h-801c-83 0-154-68-154-154 4-83 71-155 154-155z m-38 346c38 0 68 30 68 68 0 38-30 68-68 68-37 0-67-30-67-68 0-38 30-68 67-68z m215 0c37 0 67 30 67 68 0 38-30 68-67 68-38 0-68-30-68-68 4-38 30-68 68-68z m214 0c38 0 68 30 68 68 0 38-30 68-68 68-38 0-68-30-68-68 4-38 34-68 68-68z m214 0c38 0 68 30 68 68 0 38-30 68-68 68-37 0-67-30-67-68 3-38 33-68 67-68z m218 0c38 0 68 30 68 68 0 38-30 68-68 68s-67-30-67-68c0-38 30-68 67-68z m-861-391c-37 0-67-30-67-67 0-38 30-68 67-68 38 0 68 30 68 68 0 37-30 67-68 67z m215 0c-38 0-68-30-68-67 0-38 30-68 68-68 37 0 67 30 67 68 0 37-30 67-67 67z m214 0c-38 0-68-30-68-67 0-38 30-68 68-68 38 0 68 30 68 68 0 37-30 67-68 67z m214 0c-37 0-67-30-67-67 0-38 30-68 67-68 38 0 68 30 68 68 0 37-30 67-68 67z m218 0c-37 0-67-30-67-67 0-38 30-68 67-68s68 30 68 68c-4 37-34 67-68 67z m248 124c38 0 68 30 68 68 0 38-30 68-68 68s-67-34-67-72c0-34 30-64 67-64z m-1360 0c37 0 67 30 67 68 0 38-30 68-67 68-38 0-68-30-68-68 0-38 30-68 68-68z" horiz-adv-x="1789" />

<glyph glyph-name="metinglayout2" unicode="&#xe80e;" d="M11 839v-978h1767v978h-1767z m1748-959h-1729v940h1729v-940z m-1308 681c38 0 68 30 68 67 0 38-30 68-68 68-37 0-67-30-67-68 0-37 30-67 67-67z m214 0c38 0 68 30 68 67 0 38-30 68-68 68-37 0-67-30-67-68 0-37 30-67 67-67z m215 0c37 0 67 30 67 67 0 38-30 68-67 68-38 0-68-30-68-68 0-37 30-67 68-67z m214 0c38 0 68 30 68 67 0 38-30 68-68 68-38 0-68-30-68-68 0-37 30-67 68-67z m214 0c38 0 68 30 68 67 0 38-30 68-68 68-37 0-67-30-67-68 3-37 33-67 67-67z m-857-421c-37 0-67-31-67-68 0-38 30-68 67-68 38 0 68 30 68 68-4 37-34 68-68 68z m214 0c-37 0-67-31-67-68 0-38 30-68 67-68 38 0 68 30 68 68-4 37-30 68-68 68z m215 0c-38 0-68-31-68-68 0-38 30-68 68-68 37 0 67 30 67 68 0 37-30 68-67 68z m214 0c-38 0-68-31-68-68 0-38 30-68 68-68 38 0 68 30 68 68 0 37-30 68-68 68z m214 0c-37 0-67-31-67-68 0-38 30-68 67-68 38 0 68 30 68 68 0 37-30 68-68 68z m252 142c38 0 68 30 68 68 0 38-30 68-68 68-37 0-67-30-67-68 0-38 30-68 67-68z m-1361 0c38 0 68 30 68 68 0 38-30 68-68 68-37 0-67-30-67-68 0-38 30-68 67-68z m1233 222h-1075v-312h1075v312z m-150-199h-774v86h774v-86z" horiz-adv-x="1789" />

<glyph glyph-name="metinglayout3" unicode="&#xe80f;" d="M11 839v-978h1767v978h-1767z m1748-959h-1729v940h1729v-940z m-1203 681c38 0 68 30 68 67s-30 68-68 68c-37 0-67-30-67-68s30-67 67-67z m215 0c37 0 67 30 67 67s-30 68-67 68c-38 0-68-30-68-68s30-67 68-67z m214 0c38 0 68 30 68 67s-30 68-68 68c-38 0-68-30-68-68s30-67 68-67z m214 0c38 0 68 30 68 67s-30 68-68 68c-37 0-67-30-67-68s30-67 67-67z m215 0c37 0 67 30 67 67s-30 68-67 68c-38 0-68-30-68-68s30-67 68-67z m-858-391c-37 0-67-30-67-68 0-38 30-68 67-68 38 0 68 30 68 68-4 38-34 68-68 68z m215 0c-38 0-68-30-68-68 0-38 30-68 68-68 37 0 67 30 67 68-3 38-33 68-67 68z m214 0c-38 0-68-30-68-68 0-38 30-68 68-68 38 0 68 30 68 68 0 38-30 68-68 68z m214 0c-37 0-67-30-67-68 0-38 30-68 67-68 38 0 68 30 68 68 0 38-30 68-68 68z m215 0c-38 0-68-30-68-68 0-38 30-68 68-68 37 0 67 30 67 68 0 38-30 68-67 68z m-1124 26c37 0 67 30 67 68 0 37-30 67-67 67-38 0-68-30-68-67 0-42 30-68 68-68z m0 195c37 0 67 30 67 68 0 38-30 68-67 68-38 0-68-30-68-68 0-38 30-68 68-68z m240-188h951v113h-917v87h913v112h-947c0 0-135-11-135-154 0-143 135-158 135-158z" horiz-adv-x="1789" />

<glyph glyph-name="metinglayout4" unicode="&#xe810;" d="M11 839v-978h1767v978h-1767z m1748-959h-1729v940h1729v-940z m-1481 346c0-38 30-68 68-68 38 0 68 30 68 68 0 38-30 68-68 68-38-4-68-30-68-68z m226 0c0-38 30-68 67-68s68 30 68 68c0 38-30 68-68 68s-67-30-67-68z m225 0c0-38 30-68 68-68s68 30 68 68c0 38-30 68-68 68s-68-30-68-68z m226 0c0-38 30-68 68-68s67 30 67 68c0 38-30 68-67 68s-68-30-68-68z m226 0c0-38 30-68 67-68 38 0 68 30 68 68 0 38-30 68-68 68-37-4-67-30-67-68z m225 0c0-38 30-68 68-68 37 0 67 30 67 68 0 38-30 68-67 68-38-4-68-30-68-68z m-1060 323c38 0 68 30 68 68 0 38-30 68-68 68-38 0-68-30-68-68 0-38 30-68 68-68z m225 0c38 0 68 30 68 68 0 38-30 68-68 68s-67-30-67-68c0-38 30-68 67-68z m226 0c38 0 68 30 68 68 0 38-30 68-68 68s-68-30-68-68c0-38 30-68 68-68z m226 0c37 0 67 30 67 68 0 38-30 68-67 68s-68-30-68-68c0-38 30-68 68-68z m225 0c38 0 68 30 68 68 0 38-30 68-68 68-37 0-67-30-67-68 0-38 30-68 67-68z m226 0c37 0 67 30 67 68 0 38-30 68-67 68-38 0-68-30-68-68 0-38 30-68 68-68z m67-52h-1293v-98h1293v98z m0-380h-1293v-98h1293v98z" horiz-adv-x="1789" />

<glyph glyph-name="metinglayout5" unicode="&#xe811;" d="M11 839v-978h1767v978h-1767z m1748-959h-1729v940h1729v-940z m-1372 666c38 0 68 30 68 67 0 38-30 68-68 68-37 0-67-30-67-68 0-37 30-67 67-67z m215 0c37 0 67 30 67 67 0 38-30 68-67 68-38 0-68-30-68-68 4-37 30-67 68-67z m-421-147c37 0 67 30 67 68s-30 67-67 67c-38 0-68-30-68-67s34-68 68-68z m206-244c-37 0-67-31-67-68 0-38 30-68 67-68 38 0 68 30 68 68 0 37-30 68-68 68z m215 0c-38 0-68-31-68-68 0-38 30-68 68-68 37 0 67 30 67 68 0 37-30 68-67 68z m-421 26c37 0 67 30 67 68 0 37-30 67-67 67-38 0-68-30-68-67 4-38 34-68 68-68z m586 218c38 0 68 30 68 68s-30 67-68 67c-38 0-68-30-68-67s30-68 68-68z m0-218c38 0 68 30 68 68 0 37-30 67-68 67-38 0-68-30-68-67 0-38 30-68 68-68z m-312 0c94 0 169 75 169 169 0 94-75 169-169 169-94 0-169-75-169-169 0-94 75-169 169-169z m774 365c38 0 68 30 68 67 0 38-30 68-68 68s-67-30-67-68c0-37 30-67 67-67z m215 0c37 0 67 30 67 67 0 38-30 68-67 68-38 0-68-30-68-68 0-37 30-67 68-67z m-421-147c37 0 67 30 67 68s-30 67-67 67c-38 0-68-30-68-67s30-68 68-68z m206-244c-37 0-67-31-67-68 0-38 30-68 67-68s68 30 68 68c-4 37-34 68-68 68z m215 0c-38 0-68-31-68-68 0-38 30-68 68-68 37 0 67 30 67 68 0 37-30 68-67 68z m-421 26c37 0 67 30 67 68 0 37-30 67-67 67-38 0-68-30-68-67 0-38 30-68 68-68z m582 218c38 0 68 30 68 68s-30 67-68 67c-37 0-67-30-67-67s33-68 67-68z m0-218c38 0 68 30 68 68 0 37-30 67-68 67-37 0-67-30-67-67 3-38 33-68 67-68z m-308 0c94 0 169 75 169 169 0 94-75 169-169 169-94 0-169-75-169-169 0-94 75-169 169-169z" horiz-adv-x="1789" />

<glyph glyph-name="metinglayout6" unicode="&#xe812;" d="M11 839v-978h1767v978h-1767z m1748-959h-1729v940h1729v-940z m-383 846h-962v-199h962v199z m-970-244h-199v-497h199v497z m1173 0h-199v-497h199v497z" horiz-adv-x="1789" />

<glyph glyph-name="metinglayout7" unicode="&#xe813;" d="M11 839v-978h1767v978h-1767z m1748-959h-1729v940h1729v-940z m-1488 696c37 0 67 30 67 67 0 38-30 68-67 68s-64-30-64-68c0-37 30-67 64-67z m0-587c37 0 67 30 67 68 0 37-30 67-67 67s-68-30-68-67c4-38 34-68 68-68z m0 391c37 0 67 30 67 68 0 37-30 67-67 67s-68-30-68-67c4-38 34-68 68-68z m0-195c37 0 67 30 67 67s-30 68-67 68-68-30-68-68 34-67 68-67z m218 391c37 0 67 30 67 67 0 38-30 68-67 68-38 0-68-30-68-68 4-37 34-67 68-67z m0-587c37 0 67 30 67 68 0 37-30 67-67 67-38 0-68-30-68-67 4-38 34-68 68-68z m0 391c37 0 67 30 67 68 0 37-30 67-67 67-38 0-68-30-68-67 4-38 34-68 68-68z m0-195c37 0 67 30 67 67s-30 68-67 68c-38 0-68-30-68-68s34-67 68-67z m222 391c37 0 67 30 67 67 0 38-30 68-67 68-38 0-68-30-68-68 0-37 30-67 68-67z m0-587c37 0 67 30 67 68 0 37-30 67-67 67-38 0-68-30-68-67 0-38 30-68 68-68z m0 391c37 0 67 30 67 68 0 37-30 67-67 67-38 0-68-30-68-67 0-38 30-68 68-68z m0-195c37 0 67 30 67 67s-30 68-67 68c-38 0-68-30-68-68s30-67 68-67z m368 391c38 0 68 30 68 67 0 38-30 68-68 68-38 0-68-30-68-68 0-37 30-67 68-67z m0-587c38 0 68 30 68 68 0 37-30 67-68 67-38 0-68-30-68-67 0-38 30-68 68-68z m0 391c38 0 68 30 68 68 0 37-30 67-68 67-38 0-68-30-68-67 0-38 30-68 68-68z m0-195c38 0 68 30 68 67s-30 68-68 68c-38 0-68-30-68-68s30-67 68-67z m218 391c38 0 68 30 68 67 0 38-30 68-68 68-38 0-68-30-68-68 4-37 30-67 68-67z m0-587c38 0 68 30 68 68 0 37-30 67-68 67-38 0-68-30-68-67 4-38 30-68 68-68z m0 391c38 0 68 30 68 68 0 37-30 67-68 67-38 0-68-30-68-67 4-38 30-68 68-68z m0-195c38 0 68 30 68 67s-30 68-68 68c-38 0-68-30-68-68s30-67 68-67z m218 391c38 0 68 30 68 67 0 38-30 68-68 68s-68-30-68-68c4-37 34-67 68-67z m0-587c38 0 68 30 68 68 0 37-30 67-68 67s-68-30-68-67c4-38 34-68 68-68z m0 391c38 0 68 30 68 68 0 37-30 67-68 67s-68-30-68-67c4-38 34-68 68-68z m0-195c38 0 68 30 68 67s-30 68-68 68-68-30-68-68 34-67 68-67z" horiz-adv-x="1789" />

<glyph glyph-name="metinglayout8" unicode="&#xe814;" d="M11 839v-978h1767v978h-1767z m527-857c-38 0-68 30-68 67 0 38 30 68 68 68s67-30 67-68c0-37-30-67-67-67z m225 131c-37 0-67 30-67 68 0 37 30 68 67 68 38 0 68-31 68-68-4-38-34-68-68-68z m248 0c-37 0-67 30-67 68 0 37 30 68 67 68s68-31 68-68c-4-38-34-68-68-68z m215-131c-38 0-68 30-68 67 0 38 30 68 68 68 37 0 67-30 67-68 0-37-30-67-67-67z m533-102h-206c-76 297-346 519-669 519s-591-222-670-519h-184v940h1729v-940z m-1327 493l-165 165-165-165 165-166 165 166z m-165 109l113-113-113-113-113 113 113 113z m492 33l-82 219-218-83 82-218 218 82z m-105 170l57-147-147-60-56 146 146 61z m1015-312l-165 165-166-165 166-166 165 166z m-165 109l113-113-113-113-113 113 113 113z m-188 165l-218 83-83-218 218-83 83 218z m-256-113l57 147 146-57-56-146-147 56z" horiz-adv-x="1789" />

<glyph glyph-name="desktop" unicode="&#xf108;" d="M1000 296v465q0 7-5 12t-13 6h-893q-7 0-12-6t-6-12v-465q0-7 6-12t12-5h893q7 0 13 5t5 12z m71 465v-607q0-37-26-63t-63-27h-303q0-20 9-43t17-40 9-24q0-14-10-25t-25-11h-286q-15 0-25 11t-11 25q0 8 9 25t18 39 9 43h-304q-36 0-63 27t-26 63v607q0 37 26 63t63 26h893q37 0 63-26t26-63z" horiz-adv-x="1071.4" />

<glyph glyph-name="bed" unicode="&#xf236;" d="M143 279h964q15 0 25-11t11-25v-250h-143v143h-857v-143h-143v678q0 15 11 26t25 10h71q15 0 25-10t11-26v-392z m321 178q0 59-42 101t-101 42-101-42-41-101 41-101 101-42 101 42 42 101z m679-143v36q0 89-63 152t-151 62h-393q-15 0-25-10t-11-25v-215h643z" horiz-adv-x="1142.9" />
</font>
</defs>
</svg>
